<svg width="407" height="342" viewBox="0 0 407 342" fill="none" xmlns="http://www.w3.org/2000/svg">
<g filter="url(#filter0_f_301_2)">
<ellipse cx="141.5" cy="141" rx="58.5" ry="58" fill="#634FFC"/>
</g>
<g filter="url(#filter1_f_301_2)">
<ellipse cx="262" cy="198.5" rx="60" ry="58.5" fill="#C22F7C"/>
</g>
<path d="M123.932 148.991L114.408 150.607L114.424 143.528L122.989 142.135C125.654 141.683 127.787 140.675 129.388 139.113C130.985 137.532 132.12 135.625 132.795 133.394C133.485 131.14 133.803 128.777 133.748 126.307L133.643 124.177C133.556 122.66 133.348 121.143 133.018 119.626C132.685 118.09 132.148 116.709 131.406 115.485C130.683 114.256 129.71 113.323 128.487 112.684C127.263 112.044 125.725 111.852 123.872 112.106L114.108 113.733L114.09 106.629L122.914 105.162C125.785 104.735 128.378 104.9 130.693 105.656C133.003 106.393 135.002 107.586 136.687 109.235C138.372 110.885 139.695 112.878 140.654 115.215C141.61 117.533 142.167 120.049 142.326 122.764L142.46 124.889C142.575 127.813 142.235 130.622 141.441 133.318C140.667 136.01 139.475 138.45 137.864 140.639C136.27 142.804 134.301 144.62 131.956 146.087C129.609 147.534 126.934 148.502 123.932 148.991ZM119.146 105.771L119.288 149.779L110.674 151.241L110.503 107.238L119.146 105.771ZM164.875 134.663L164.584 120.045C164.53 119.167 164.348 118.372 164.04 117.658C163.732 116.944 163.265 116.418 162.64 116.081C162.031 115.72 161.233 115.604 160.246 115.731C159.361 115.861 158.595 116.152 157.949 116.605C157.318 117.034 156.831 117.591 156.488 118.274C156.142 118.938 155.953 119.696 155.922 120.548L147.643 122.013C147.429 120.235 147.65 118.635 148.306 117.213C148.978 115.768 149.928 114.519 151.154 113.464C152.38 112.409 153.762 111.549 155.299 110.885C156.856 110.218 158.413 109.772 159.968 109.548C162.189 109.212 164.24 109.337 166.121 109.925C168.021 110.51 169.578 111.546 170.79 113.034C172.019 114.499 172.722 116.416 172.9 118.785L173.111 132.782C173.136 133.947 173.21 135.164 173.334 136.433C173.455 137.683 173.839 138.827 174.488 139.866L174.523 140.405L166.415 141.811C165.838 140.72 165.442 139.567 165.226 138.354C165.027 137.117 164.91 135.887 164.875 134.663ZM165.889 121.941L165.944 126.861L161.735 127.545C160.896 127.707 160.074 127.968 159.27 128.326C158.481 128.662 157.773 129.104 157.143 129.655C156.511 130.186 156.018 130.824 155.666 131.569C155.333 132.311 155.193 133.171 155.246 134.15C155.269 134.852 155.447 135.457 155.779 135.965C156.108 136.454 156.545 136.813 157.091 137.043C157.656 137.27 158.293 137.333 159.002 137.233C160.005 137.083 160.952 136.73 161.843 136.176C162.73 135.602 163.46 134.883 164.034 134.02C164.608 133.156 164.945 132.212 165.046 131.187L167.46 134.557C167.184 135.733 166.765 136.842 166.203 137.885C165.661 138.925 164.99 139.866 164.19 140.707C163.387 141.529 162.468 142.209 161.433 142.747C160.402 143.306 159.257 143.681 157.999 143.875C156.248 144.131 154.568 143.993 152.96 143.46C151.367 142.903 150.018 142.013 148.913 140.79C147.824 139.543 147.156 137.993 146.908 136.14C146.618 134.052 146.832 132.241 147.55 130.708C148.263 129.156 149.304 127.85 150.67 126.792C152.057 125.73 153.612 124.881 155.337 124.246C157.077 123.587 158.829 123.109 160.593 122.809L165.889 121.941ZM188.028 105.391L188.163 138.09L179.873 139.497L179.767 106.793L188.028 105.391ZM179.237 98.506C178.961 97.1817 179.203 96.0418 179.963 95.0864C180.741 94.1276 181.776 93.5287 183.066 93.2896C184.297 93.0605 185.441 93.2494 186.497 93.8564C187.55 94.4438 188.189 95.3737 188.415 96.6459C188.69 97.9701 188.438 99.1117 187.66 100.07C186.881 101.029 185.856 101.627 184.586 101.862C183.355 102.091 182.213 101.912 181.16 101.325C180.126 100.734 179.485 99.7944 179.237 98.506ZM203.449 89.0439L203.625 135.466L195.335 136.873L195.159 90.4508L203.449 89.0439ZM219.491 128.63L227.448 98.7009L236.561 97.1543L224.409 136.898C224.065 138.146 223.627 139.319 223.095 140.418C222.587 141.532 221.955 142.526 221.202 143.4C220.471 144.29 219.582 145.026 218.535 145.607C217.51 146.204 216.312 146.619 214.94 146.852C214.254 146.968 213.578 147.023 212.91 147.015C212.242 147.007 211.571 146.98 210.897 146.933L210.376 140.58C210.595 140.563 210.814 140.546 211.033 140.529C211.233 140.515 211.43 140.492 211.626 140.459C212.61 140.312 213.451 140.048 214.151 139.667C214.873 139.303 215.47 138.798 215.942 138.154C216.416 137.529 216.802 136.748 217.101 135.81L219.491 128.63ZM215.895 100.662L222.818 123.65L223.95 132.258L218.538 133.842L207.311 102.118L215.895 100.662Z" fill="white"/>
<path d="M175.181 188.313L175.515 205.736C174.515 207.498 173.143 208.981 171.398 210.185C169.67 211.365 167.788 212.31 165.754 213.018C163.719 213.726 161.748 214.222 159.84 214.505C156.913 214.962 154.32 214.797 152.061 214.011C149.818 213.202 147.917 211.932 146.359 210.2C144.82 208.466 143.629 206.42 142.788 204.063C141.942 201.686 141.452 199.148 141.317 196.449L141.225 193.713C141.112 190.909 141.364 188.175 141.981 185.51C142.595 182.825 143.583 180.369 144.944 178.142C146.302 175.895 148.07 174.023 150.247 172.524C152.42 171.006 155.021 170.02 158.05 169.567C161.078 169.114 163.749 169.265 166.064 170.021C168.378 170.778 170.309 172.103 171.856 173.998C173.419 175.87 174.563 178.277 175.286 181.218L166.991 182.596C166.643 181.203 166.139 180.009 165.478 179.012C164.816 178.015 163.962 177.294 162.913 176.846C161.865 176.399 160.571 176.276 159.032 176.477C157.137 176.718 155.586 177.364 154.38 178.416C153.173 179.467 152.233 180.766 151.558 182.312C150.9 183.835 150.451 185.463 150.214 187.197C149.973 188.912 149.883 190.57 149.945 192.172L150.052 194.997C150.129 196.456 150.308 197.978 150.59 199.563C150.887 201.125 151.374 202.565 152.052 203.881C152.745 205.175 153.69 206.174 154.884 206.879C156.076 207.563 157.606 207.767 159.474 207.491C160.379 207.357 161.251 207.149 162.089 206.865C162.927 206.582 163.72 206.216 164.468 205.766C165.212 205.297 165.891 204.738 166.502 204.09L166.624 196.237L158.805 197.564L158.778 191.097L175.181 188.313ZM230.473 157.911L237.47 156.723L248.222 187.137L258.753 153.111L266.337 151.824L251.516 198.372L245.637 199.37L230.473 157.911ZM226.387 158.604L233.678 157.367L235.142 189.024L235.142 201.151L226.559 202.607L226.387 158.604ZM262.809 152.423L270.129 151.181L270.3 195.184L261.658 196.651L261.645 183.77L262.809 152.423ZM305.622 182.113L305.634 189.187L283.499 192.944L283.457 185.874L305.622 182.113ZM286.179 148.457L286.321 192.465L277.708 193.927L277.537 149.923L286.179 148.457ZM302.671 163.591L302.682 170.485L283.427 173.752L283.416 166.859L302.671 163.591ZM305.434 145.189L305.452 152.293L283.346 156.044L283.357 148.935L305.434 145.189Z" fill="white"/>
<path d="M171.028 161.744C172.749 153.635 175.924 151.715 185.262 152.661" stroke="white" stroke-width="2"/>
<path d="M175.335 162.548C176.49 157.109 178.619 155.821 184.883 156.456" stroke="white" stroke-width="2"/>
<path d="M166.905 160.899C169.322 149.51 173.781 146.813 186.898 148.142" stroke="white" stroke-width="2"/>
<path d="M221.331 184.989C222.536 195.539 214.767 205.108 203.896 206.296C193.025 207.484 183.29 199.827 182.086 189.276C180.882 178.726 188.651 169.157 199.521 167.969C210.392 166.782 220.127 174.438 221.331 184.989Z" stroke="white" stroke-width="3.32448"/>
<ellipse rx="15.5135" ry="15.186" transform="matrix(0.994085 -0.108609 0.113405 0.993549 201.712 187.164)" fill="white"/>
<path d="M201.475 177.641L201.795 180.452L200.328 180.612L200.007 177.802L201.475 177.641ZM203.058 193.112L203.348 195.648L201.89 195.807L201.6 193.272L203.058 193.112ZM203.937 189.893C203.896 189.534 203.791 189.229 203.622 188.979C203.459 188.729 203.208 188.517 202.869 188.343C202.536 188.169 202.096 188.016 201.551 187.884C200.703 187.676 199.953 187.429 199.3 187.143C198.647 186.85 198.12 186.457 197.718 185.965C197.323 185.471 197.08 184.821 196.988 184.014C196.899 183.238 197.002 182.546 197.297 181.939C197.598 181.325 198.055 180.828 198.67 180.448C199.284 180.062 200.02 179.822 200.879 179.728C201.548 179.655 202.159 179.69 202.712 179.834C203.271 179.971 203.761 180.208 204.183 180.545C204.611 180.882 204.958 181.316 205.223 181.849C205.494 182.375 205.67 182.992 205.751 183.698L203.251 183.971C203.207 183.58 203.123 183.238 203 182.945C202.877 182.652 202.722 182.41 202.534 182.22C202.345 182.023 202.128 181.884 201.882 181.802C201.643 181.72 201.378 181.695 201.088 181.726C200.671 181.772 200.336 181.888 200.083 182.076C199.836 182.262 199.665 182.498 199.569 182.783C199.48 183.068 199.456 183.386 199.496 183.74C199.535 184.08 199.633 184.373 199.788 184.618C199.95 184.856 200.197 185.062 200.53 185.236C200.869 185.41 201.326 185.574 201.899 185.728C202.754 185.941 203.506 186.198 204.153 186.498C204.8 186.791 205.321 187.181 205.715 187.668C206.109 188.155 206.352 188.799 206.443 189.6C206.537 190.42 206.427 191.135 206.113 191.744C205.805 192.352 205.331 192.842 204.69 193.212C204.048 193.582 203.279 193.816 202.383 193.914C201.809 193.977 201.232 193.963 200.653 193.873C200.074 193.783 199.535 193.593 199.035 193.303C198.541 193.005 198.126 192.588 197.79 192.05C197.453 191.505 197.237 190.817 197.142 189.984L199.651 189.71C199.705 190.19 199.814 190.58 199.976 190.882C200.138 191.183 200.338 191.417 200.574 191.583C200.809 191.742 201.064 191.845 201.337 191.892C201.611 191.939 201.884 191.947 202.155 191.918C202.597 191.869 202.954 191.754 203.227 191.571C203.507 191.387 203.704 191.151 203.818 190.864C203.937 190.57 203.977 190.247 203.937 189.893Z" fill="#1B1D32"/>
<rect width="2.96747" height="5.83001" rx="1.48374" transform="matrix(-0.582843 0.809625 -0.74648 -0.669001 217.598 204.9)" fill="white"/>
<rect width="2.97857" height="5.83992" rx="1.48928" transform="matrix(-0.855183 -0.522815 0.640552 -0.764769 192.607 210.02)" fill="white"/>
<path d="M180.502 173.165C178.5 169.495 179.206 165.167 182.147 162.819C183.794 161.504 186.352 160.985 189.045 161.376C190.978 161.657 192.842 162.389 194.322 163.482L190.585 165.041C188.927 165.662 186.445 167.265 184.316 169.064C183.227 169.984 182.18 170.997 181.344 172.02C181.044 172.386 180.758 172.769 180.502 173.165Z" stroke="white" stroke-width="3"/>
<path d="M209.865 163.734C212.817 160.994 217.053 160.438 220.126 162.383C221.907 163.511 223.197 165.731 223.644 168.36C223.964 170.247 223.825 172.21 223.213 173.926L220.554 170.929C219.451 169.589 217.073 167.647 214.602 166.09C213.34 165.296 211.998 164.566 210.72 164.05C210.44 163.937 210.154 163.83 209.865 163.734Z" stroke="white" stroke-width="3"/>
<defs>
<filter id="filter0_f_301_2" x="0" y="0" width="283" height="282" filterUnits="userSpaceOnUse" color-interpolation-filters="sRGB">
<feFlood flood-opacity="0" result="BackgroundImageFix"/>
<feBlend mode="normal" in="SourceGraphic" in2="BackgroundImageFix" result="shape"/>
<feGaussianBlur stdDeviation="41.5" result="effect1_foregroundBlur_301_2"/>
</filter>
<filter id="filter1_f_301_2" x="117" y="55" width="290" height="287" filterUnits="userSpaceOnUse" color-interpolation-filters="sRGB">
<feFlood flood-opacity="0" result="BackgroundImageFix"/>
<feBlend mode="normal" in="SourceGraphic" in2="BackgroundImageFix" result="shape"/>
<feGaussianBlur stdDeviation="42.5" result="effect1_foregroundBlur_301_2"/>
</filter>
</defs>
</svg>
