<svg width="6" height="11" viewBox="0 0 6 11" fill="none" xmlns="http://www.w3.org/2000/svg">
<path fill-rule="evenodd" clip-rule="evenodd" d="M0.191842 10.368C0.404907 10.5732 0.749497 10.5732 0.962036 10.368L5.46692 6.02036C5.56776 5.92453 5.64806 5.80938 5.70293 5.68154C5.75779 5.5537 5.78608 5.41581 5.78608 5.2767C5.78608 5.13759 5.75779 4.99995 5.70293 4.87212C5.64806 4.74428 5.56776 4.62913 5.46692 4.53329L0.92942 0.153517C0.82644 0.0556373 0.690068 0.000624109 0.547996 -0.000352999C0.405924 -0.00133011 0.268801 0.0519255 0.164484 0.14838C0.112808 0.196012 0.0714641 0.253659 0.0430051 0.317919C0.014546 0.382179 -0.000418767 0.451603 -0.000961264 0.521881C-0.00150376 0.592159 0.0123867 0.661664 0.0398503 0.726356C0.0673139 0.791048 0.107762 0.849527 0.158697 0.897951L4.31163 4.90525C4.36209 4.95317 4.40227 5.01085 4.42973 5.07479C4.45718 5.13874 4.47136 5.20737 4.47136 5.27696C4.47136 5.34655 4.45718 5.41543 4.42973 5.47938C4.40227 5.54332 4.36209 5.601 4.31163 5.64892L0.191842 9.62462C0.141396 9.6725 0.101227 9.73026 0.0737743 9.79416C0.0463218 9.85806 0.03216 9.92678 0.03216 9.99633C0.03216 10.0659 0.0463218 10.1346 0.0737743 10.1985C0.101227 10.2624 0.141396 10.3202 0.191842 10.368Z" fill="#523CF5"/>
</svg>
