<svg width="49" height="49" viewBox="0 0 49 49" fill="none" xmlns="http://www.w3.org/2000/svg">
<circle cx="22.9857" cy="29.2078" r="15.4921" transform="rotate(-6.3719 22.9857 29.2078)" stroke="#523CF5" stroke-width="2.67104"/>
<circle cx="22.9879" cy="29.2334" r="12.1978" transform="rotate(-6.3719 22.9879 29.2334)" fill="#523CF5"/>
<path d="M22.8623 21.1109L23.1145 23.3693L21.9358 23.5009L21.6836 21.2425L22.8623 21.1109ZM24.1045 33.5446L24.3321 35.5825L23.161 35.7133L22.9334 33.6754L24.1045 33.5446ZM24.8162 30.9553C24.7839 30.6663 24.7001 30.4216 24.5648 30.2211C24.4346 30.0201 24.2334 29.8501 23.9613 29.7111C23.6942 29.5715 23.3418 29.4492 22.904 29.3441C22.2234 29.1789 21.6214 28.9818 21.098 28.7528C20.574 28.5188 20.1513 28.2041 19.83 27.8088C19.5138 27.413 19.3195 26.8907 19.247 26.2418C19.1774 25.6182 19.2616 25.0622 19.4996 24.5737C19.7421 24.0795 20.1105 23.6791 20.6049 23.3724C21.0988 23.0606 21.6904 22.8662 22.3799 22.7892C22.9172 22.7292 23.4079 22.7565 23.8518 22.8712C24.3003 22.9802 24.6936 23.1699 25.0317 23.4401C25.3749 23.7097 25.6526 24.0585 25.8646 24.4865C26.0811 24.9089 26.2211 25.4039 26.2845 25.9717L24.277 26.1959C24.2419 25.8816 24.1753 25.6067 24.0771 25.3713C23.979 25.1359 23.8547 24.9419 23.7042 24.7894C23.5531 24.6317 23.379 24.5203 23.1818 24.455C22.9897 24.3892 22.777 24.3694 22.5439 24.3954C22.2093 24.4328 21.9401 24.527 21.7362 24.6781C21.5375 24.8286 21.3996 25.0185 21.3225 25.2478C21.2505 25.4765 21.2304 25.7329 21.2621 26.0167C21.2927 26.2905 21.3703 26.5256 21.4949 26.7222C21.624 26.913 21.822 27.0783 22.0891 27.2178C22.3613 27.3568 22.7275 27.4878 23.1878 27.611C23.874 27.7807 24.4769 27.9854 24.9964 28.2251C25.5153 28.4597 25.9326 28.7724 26.2483 29.1631C26.5639 29.5539 26.7577 30.0712 26.8296 30.715C26.9032 31.374 26.8134 31.9487 26.5602 32.4389C26.312 32.9285 25.93 33.3228 25.4142 33.6216C24.8984 33.9204 24.2805 34.1101 23.5607 34.1905C23.0994 34.242 22.6363 34.2321 22.1716 34.1608C21.7068 34.0895 21.2741 33.9377 20.8734 33.7052C20.4773 33.4672 20.1448 33.1322 19.8758 32.7003C19.6063 32.2633 19.4342 31.7102 19.3595 31.0411L21.3746 30.816C21.4176 31.2013 21.504 31.515 21.6337 31.7572C21.7634 31.9993 21.9229 32.1868 22.1122 32.3197C22.301 32.4474 22.5053 32.5298 22.725 32.5669C22.9447 32.604 23.1635 32.6103 23.3815 32.586C23.7364 32.5463 24.0236 32.4527 24.2432 32.305C24.4679 32.1567 24.6264 31.9671 24.7186 31.736C24.8154 31.4994 24.8479 31.2391 24.8162 30.9553Z" fill="#F2F2F2"/>
<rect width="2.36104" height="4.63925" rx="1.18052" transform="matrix(-0.575828 0.817571 -0.737388 -0.675469 35.4756 43.4832)" fill="#523CF5"/>
<rect width="2.36104" height="4.63925" rx="1.18052" transform="matrix(-0.848048 -0.529919 0.633826 -0.773476 15.8311 47.5968)" fill="#523CF5"/>
<path d="M6.32117 17.9591C4.75548 15.0118 5.31908 11.5515 7.61329 9.6793C8.89928 8.62987 10.9027 8.21204 13.0184 8.5261C14.5301 8.75051 15.9897 9.33446 17.151 10.208L14.2427 11.4478C12.9357 11.9485 10.9816 13.2384 9.30726 14.6847C8.45064 15.4246 7.62622 16.2403 6.96726 17.0633C6.73792 17.3498 6.51824 17.6499 6.32117 17.9591Z" stroke="#523CF5" stroke-width="2.41034"/>
<path d="M29.4224 10.4055C31.7401 8.21621 35.0555 7.77862 37.4566 9.33218C38.8502 10.2338 39.863 12.0122 40.2137 14.1221C40.4643 15.6297 40.3567 17.1981 39.8819 18.5716L37.8091 16.1845C36.9402 15.1051 35.0689 13.5433 33.1257 12.2926C32.1335 11.654 31.0774 11.0668 30.0712 10.6514C29.8587 10.5636 29.6417 10.4807 29.4224 10.4055Z" stroke="#523CF5" stroke-width="2.41034"/>
</svg>
