<svg width="39" height="37" viewBox="0 0 39 37" fill="none" xmlns="http://www.w3.org/2000/svg">
<path fill-rule="evenodd" clip-rule="evenodd" d="M14.3364 16.2183V22.385C14.3364 23.811 15.1695 25.1939 16.7544 26.2623C18.6389 27.5326 21.67 28.3975 25.1004 28.3975C28.5309 28.3975 31.5619 27.5326 33.4464 26.2623C35.0314 25.1939 35.8644 23.811 35.8644 22.385V16.2183C35.8644 15.4521 35.2357 14.8308 34.4604 14.8308C33.6851 14.8308 33.0564 15.4521 33.0564 16.2183V22.385C33.0564 23.0032 32.551 23.5073 31.863 23.9698C30.3405 24.9966 27.8725 25.6225 25.1004 25.6225C22.3283 25.6225 19.8604 24.9966 18.3378 23.9698C17.6499 23.5073 17.1444 23.0032 17.1444 22.385V16.2183C17.1444 15.4521 16.5157 14.8308 15.7404 14.8308C14.9651 14.8308 14.3364 15.4521 14.3364 16.2183Z" fill="#FFD951"/>
<path fill-rule="evenodd" clip-rule="evenodd" d="M14.3364 22.385V28.5517C14.3364 29.9777 15.1695 31.3606 16.7544 32.429C18.6389 33.6993 21.67 34.5642 25.1004 34.5642C28.5309 34.5642 31.5619 33.6993 33.4464 32.429C35.0314 31.3606 35.8644 29.9777 35.8644 28.5517V22.385C35.8644 21.6188 35.2357 20.9975 34.4604 20.9975C33.6851 20.9975 33.0564 21.6188 33.0564 22.385V28.5517C33.0564 29.1699 32.551 29.674 31.863 30.1365C30.3405 31.1632 27.8725 31.7892 25.1004 31.7892C22.3283 31.7892 19.8604 31.1632 18.3378 30.1365C17.6499 29.674 17.1444 29.1699 17.1444 28.5517V22.385C17.1444 21.6188 16.5157 20.9975 15.7404 20.9975C14.9651 20.9975 14.3364 21.6188 14.3364 22.385Z" fill="#FFD951"/>
<path fill-rule="evenodd" clip-rule="evenodd" d="M25.1004 10.2058C21.6715 10.2058 18.6405 11.0707 16.756 12.341C15.171 13.4094 14.3364 14.7923 14.3364 16.2183C14.3364 17.6444 15.171 19.0272 16.756 20.0956C18.6405 21.366 21.6715 22.2308 25.1004 22.2308C28.5293 22.2308 31.5604 21.366 33.4449 20.0956C35.0298 19.0272 35.8644 17.6444 35.8644 16.2183C35.8644 14.7923 35.0298 13.4094 33.4449 12.341C31.5604 11.0707 28.5293 10.2058 25.1004 10.2058ZM25.1004 12.9808C27.871 12.9808 30.3389 13.6083 31.863 14.6335C32.551 15.0975 33.0564 15.6001 33.0564 16.2183C33.0564 16.8365 32.551 17.3391 31.863 17.8032C30.3389 18.8284 27.871 19.4558 25.1004 19.4558C22.3299 19.4558 19.8619 18.8284 18.3378 17.8032C17.6499 17.3391 17.1444 16.8365 17.1444 16.2183C17.1444 15.6001 17.6499 15.0975 18.3378 14.6335C19.8619 13.6083 22.3299 12.9808 25.1004 12.9808Z" fill="#FFD951"/>
<path fill-rule="evenodd" clip-rule="evenodd" d="M1.85645 7.70833V13.875C1.85645 15.0405 2.40088 16.1628 3.45856 17.1171C4.70812 18.2456 6.7486 19.1614 9.23056 19.5992C9.9934 19.7333 10.7219 19.2307 10.8592 18.4769C10.9949 17.7215 10.4848 17.0015 9.72197 16.8674C8.14013 16.5883 6.77512 16.0919 5.8126 15.429C5.1496 14.9742 4.66444 14.4793 4.66444 13.875V7.70833C4.66444 6.94212 4.03576 6.32083 3.26044 6.32083C2.48512 6.32083 1.85645 6.94212 1.85645 7.70833Z" fill="#FFD951"/>
<path fill-rule="evenodd" clip-rule="evenodd" d="M1.85645 13.875V20.0417C1.85645 21.3444 2.54441 22.6039 3.86885 23.626C5.43353 24.8347 7.97164 25.7397 10.9497 25.9863C11.7219 26.0495 12.4005 25.4822 12.4644 24.7191C12.53 23.956 11.9559 23.2838 11.1837 23.2206C8.84369 23.0279 6.8266 22.3881 5.59576 21.4384C5.056 21.0222 4.66444 20.5735 4.66444 20.0417V13.875C4.66444 13.1088 4.03576 12.4875 3.26044 12.4875C2.48512 12.4875 1.85645 13.1088 1.85645 13.875ZM11.165 10.8857C8.83276 10.6899 6.82036 10.0501 5.59421 9.102C5.05445 8.68575 4.66444 8.23866 4.66444 7.70833C4.66444 7.09012 5.16988 6.58754 5.85784 6.1235C7.38196 5.09829 9.84988 4.47083 12.6204 4.47083C15.391 4.47083 17.8589 5.09829 19.383 6.1235C20.071 6.58754 20.5764 7.09012 20.5764 7.70833C20.5764 8.47454 21.2051 9.09583 21.9804 9.09583C22.7558 9.09583 23.3844 8.47454 23.3844 7.70833C23.3844 6.28229 22.5498 4.89941 20.9649 3.83104C19.0804 2.5607 16.0493 1.69583 12.6204 1.69583C9.19156 1.69583 6.16048 2.5607 4.276 3.83104C2.69104 4.89941 1.85645 6.28229 1.85645 7.70833C1.85645 9.0095 2.54284 10.2675 3.86416 11.2881C5.42572 12.4952 7.95916 13.4017 10.9278 13.6499C11.7 13.7147 12.3802 13.1489 12.4457 12.3857C12.5112 11.6226 11.9372 10.9505 11.165 10.8857Z" fill="#FFD951"/>
</svg>
