<svg width="29" height="27" viewBox="0 0 29 27" fill="none" xmlns="http://www.w3.org/2000/svg">
<path d="M28.9526 24.9082L27.6276 20.9336C27.5521 20.7068 27.5767 20.4631 27.6862 20.2506C28.6818 18.3162 29.093 16.0322 28.6623 13.6247C28.0018 9.93417 25.2993 6.86749 21.7942 5.69141C22.6986 7.87577 22.9744 10.3045 22.5226 12.7136C21.6046 17.6102 17.6836 21.4926 12.766 22.3746C12.1294 22.4888 11.4862 22.5443 10.848 22.5606C12.3415 24.1719 14.335 25.3173 16.5588 25.7161C18.9515 26.1453 21.2248 25.7458 23.1535 24.765C23.3651 24.6574 23.6071 24.6335 23.8324 24.7085L27.8222 26.0385C28.5208 26.2714 29.1855 25.6068 28.9526 24.9082Z" fill="#666880"/>
<path d="M8.54599 0.185132C4.40155 0.955218 1.08037 4.32232 0.337695 8.47174C-0.0930764 10.8792 0.318135 13.1632 1.3138 15.0976C1.42323 15.3101 1.44785 15.5539 1.37241 15.7806L0.0473923 19.7552C-0.185439 20.4538 0.479145 21.1184 1.17779 20.8856L5.16756 19.5556C5.39291 19.4806 5.63503 19.5045 5.84657 19.6121C7.77514 20.5929 10.0484 20.9923 12.4411 20.5632C16.5804 19.8209 19.9389 16.5079 20.7138 12.3747C22.079 5.09338 15.8251 -1.16745 8.54599 0.185132ZM11.1845 13.5928H6.03144C5.52319 13.5928 5.11122 13.1809 5.11122 12.6726C5.11122 12.1643 5.52319 11.7524 6.03144 11.7524H11.1845C11.6929 11.7524 12.1048 12.1643 12.1048 12.6726C12.1048 13.1809 11.6929 13.5928 11.1845 13.5928ZM14.8653 9.912H6.03137C5.52311 9.912 5.11114 9.5001 5.11114 8.99177C5.11114 8.48352 5.52311 8.07155 6.03137 8.07155H14.8653C15.3736 8.07155 15.7855 8.48352 15.7855 8.99177C15.7856 9.5001 15.3737 9.912 14.8653 9.912Z" fill="#666880"/>
</svg>
