<svg width="18" height="17" viewBox="0 0 18 17" fill="none" xmlns="http://www.w3.org/2000/svg">
<path d="M8.51771 17C6.25104 17 4.12604 16.15 2.49687 14.5208C-0.832292 11.1917 -0.832292 5.80833 2.49687 2.47917C4.12604 0.85 6.25104 0 8.51771 0C10.7844 0 12.9094 0.85 14.5385 2.47917C17.8677 5.80833 17.8677 11.1917 14.5385 14.5208C12.9094 16.15 10.7844 17 8.51771 17ZM8.51771 1.41667C6.60521 1.41667 4.83437 2.125 3.48854 3.47083C0.726042 6.23333 0.726042 10.7667 3.48854 13.5292C4.83437 14.875 6.60521 15.5833 8.51771 15.5833C10.4302 15.5833 12.201 14.875 13.5469 13.5292C16.3094 10.7667 16.3094 6.30417 13.5469 3.54167C12.201 2.125 10.4302 1.41667 8.51771 1.41667Z" fill="#5EFF5A"/>
<path d="M8.51742 12.75C8.09242 12.75 7.80908 12.4667 7.80908 12.0417V4.95833C7.80908 4.53333 8.09242 4.25 8.51742 4.25C8.94242 4.25 9.22575 4.53333 9.22575 4.95833V12.0417C9.22575 12.4667 8.94242 12.75 8.51742 12.75Z" fill="#5EFF5A"/>
<path d="M12.0592 9.20835H4.97591C4.55091 9.20835 4.26758 8.92502 4.26758 8.50002C4.26758 8.07502 4.55091 7.79169 4.97591 7.79169H12.0592C12.4842 7.79169 12.7676 8.07502 12.7676 8.50002C12.7676 8.92502 12.4842 9.20835 12.0592 9.20835Z" fill="#5EFF5A"/>
</svg>
