<svg width="225" height="153" viewBox="0 0 225 153" fill="none" xmlns="http://www.w3.org/2000/svg">
<path d="M23.6085 83.977L14.0901 85.6282L14.1315 78.5397L22.6906 77.1155C25.3542 76.6535 27.488 75.6377 29.092 74.0683C30.6926 72.4793 31.8335 70.5666 32.5148 68.3301C33.2123 66.0706 33.5381 63.7041 33.4924 61.2305L33.3949 59.0988C33.313 57.5798 33.1102 56.0615 32.7864 54.5441C32.4593 53.007 31.9273 51.6266 31.1904 50.4027C30.4732 49.1754 29.5046 48.244 28.2847 47.6082C27.0648 46.9725 25.5293 46.785 23.6781 47.0456L13.9196 48.7081L13.9265 41.5954L22.7449 40.0959C25.6145 39.6586 28.2038 39.8147 30.5126 40.5642C32.8181 41.294 34.8096 42.4818 36.4871 44.1276C38.1646 45.7733 39.4785 47.7646 40.4285 50.1015C41.3752 52.4187 41.9229 54.9363 42.0716 57.6542L42.1984 59.7808C42.3027 62.7082 41.9537 65.5226 41.1513 68.2239C40.3685 70.9219 39.169 73.3694 37.5528 75.5663C35.9528 77.7402 33.9796 79.5654 31.6332 81.0416C29.2833 82.4983 26.6085 83.4768 23.6085 83.977ZM18.9795 40.7188L18.9668 84.7822L10.3592 86.2754L10.3424 42.2171L18.9795 40.7188ZM64.5516 69.4908L64.3127 54.8553C64.2611 53.9765 64.0826 53.1803 63.7773 52.4667C63.4719 51.753 63.0077 51.2283 62.3845 50.8926C61.7776 50.5338 60.9811 50.4198 59.995 50.5505C59.1103 50.6838 58.3443 50.9781 57.697 51.4334C57.0658 51.8656 56.5777 52.4244 56.2326 53.1097C55.884 53.7754 55.693 54.5348 55.6594 55.388L47.3851 56.8838C47.1772 55.1042 47.4036 53.5014 48.0641 52.0755C48.7407 50.6266 49.6932 49.3719 50.9215 48.3115C52.1498 47.2511 53.5329 46.3858 55.071 45.7155C56.6286 45.0418 58.1844 44.5903 59.7384 44.3611C61.9584 44.0164 64.0065 44.1352 65.8829 44.7175C67.7788 45.2965 69.3298 46.3287 70.5357 47.8142C71.7577 49.2767 72.4534 51.1937 72.6227 53.5651L72.7839 67.5786C72.8047 68.7451 72.8749 69.9636 72.9944 71.234C73.1105 72.4848 73.4906 73.6294 74.1347 74.6676L74.1677 75.2066L66.0645 76.6425C65.492 75.5515 65.1004 74.3989 64.8897 73.1846C64.6953 71.9473 64.5825 70.7161 64.5516 69.4908ZM65.6095 56.7486L65.647 61.6748L61.4408 62.3742C60.6021 62.5399 59.7803 62.8035 58.9755 63.165C58.1869 63.5035 57.4774 63.9494 56.8471 64.5026C56.2134 65.0362 55.7193 65.6767 55.3647 66.4241C55.0298 67.1682 54.8868 68.0302 54.9357 69.0103C54.9567 69.7127 55.1323 70.3178 55.4624 70.8254C55.7892 71.3134 56.2246 71.6716 56.7686 71.9001C57.3321 72.1251 57.9682 72.1863 58.6766 72.0835C59.6789 71.9299 60.6258 71.5739 61.5176 71.0157C62.4059 70.438 63.138 69.7158 63.714 68.8493C64.29 67.9827 64.6301 67.0361 64.7344 66.0092L67.1341 69.3757C66.8543 70.554 66.4319 71.6663 65.867 72.7125C65.3216 73.7553 64.6481 74.6993 63.8465 75.5444C63.0415 76.37 62.1212 77.0542 61.0856 77.597C60.0534 78.1593 58.9088 78.5395 57.652 78.7373C55.9021 79.0005 54.2248 78.8678 52.62 78.3392C51.0314 77.7876 49.6873 76.9011 48.5877 75.6796C47.5044 74.4352 46.8422 72.8856 46.6012 71.031C46.3194 68.9414 46.5394 67.1279 47.2613 65.5904C47.9797 64.0334 49.0233 62.7226 50.3921 61.658C51.7804 60.59 53.3369 59.735 55.0614 59.0929C56.802 58.4278 58.5537 57.9423 60.3164 57.6366L65.6095 56.7486ZM87.7786 40.1023L87.799 72.842L79.5145 74.2791L79.5235 41.5343L87.7786 40.1023ZM79.0226 33.2386C78.7524 31.9136 78.9981 30.7715 79.7597 29.8122C80.5409 28.8496 81.5761 28.2463 82.8654 28.0025C84.0958 27.7689 85.2376 27.9541 86.2906 28.5583C87.3402 29.1428 87.9754 30.0716 88.1962 31.3447C88.4664 32.6697 88.2109 33.8135 87.4297 34.7762C86.6485 35.7389 85.6231 36.3404 84.3534 36.5808C83.123 36.8144 81.9829 36.639 80.9333 36.0544C79.9033 35.4665 79.2664 34.5279 79.0226 33.2386ZM103.239 23.6816L103.252 70.1614L94.9672 71.5985L94.954 25.1187L103.239 23.6816ZM119.123 63.2625L127.174 33.2684L136.281 31.6886L124.006 71.5242C123.658 72.7749 123.216 73.951 122.681 75.0525C122.169 76.1703 121.535 77.1679 120.779 78.0455C120.046 78.9392 119.156 79.6787 118.108 80.2641C117.082 80.8656 115.884 81.2853 114.513 81.5231C113.827 81.6421 113.151 81.6988 112.485 81.6934C111.818 81.688 111.148 81.663 110.474 81.6185L109.977 75.2591C110.195 75.2413 110.414 75.2235 110.633 75.2057C110.832 75.1913 111.03 75.1671 111.226 75.1332C112.208 74.9829 113.05 74.7159 113.75 74.3322C114.473 73.9647 115.071 73.4574 115.544 72.8105C116.02 72.1832 116.408 71.3996 116.709 70.4597L119.123 63.2625ZM115.629 35.2711L122.462 58.2649L123.563 66.8801L118.152 68.4845L107.05 36.7592L115.629 35.2711Z" fill="white"/>
<path d="M74.2417 123.198L74.5139 140.642C73.5092 142.411 72.1335 143.9 70.3866 145.111C68.6559 146.299 66.7733 147.251 64.7388 147.967C62.7044 148.683 60.7339 149.186 58.8273 149.476C55.9023 149.943 53.3131 149.787 51.0596 149.008C48.8223 148.206 46.9283 146.941 45.3777 145.212C43.8467 143.481 42.6649 141.436 41.8323 139.079C40.9963 136.702 40.5155 134.163 40.3898 131.461L40.3079 128.722C40.2044 125.915 40.4657 123.177 41.0919 120.506C41.7146 117.815 42.7097 115.353 44.0773 113.118C45.4415 110.864 47.2133 108.983 49.3929 107.476C51.569 105.948 54.1703 104.952 57.1966 104.488C60.2229 104.023 62.8905 104.166 65.1993 104.915C67.5082 105.665 69.4319 106.985 70.9706 108.877C72.5254 110.746 73.6589 113.152 74.3712 116.095L66.0816 117.502C65.739 116.109 65.2393 114.915 64.5824 113.919C63.9255 112.924 63.0743 112.204 62.0289 111.76C60.9835 111.316 59.6919 111.197 58.1541 111.403C56.2603 111.651 54.7091 112.303 53.5004 113.36C52.2917 114.417 51.3477 115.721 50.6684 117.271C50.0053 118.798 49.5521 120.43 49.3086 122.167C49.0618 123.884 48.9666 125.545 49.023 127.149L49.1201 129.977C49.1918 131.437 49.3653 132.961 49.6405 134.547C49.9319 136.111 50.4136 137.55 51.0857 138.866C51.774 140.159 52.7136 141.156 53.9044 141.857C55.092 142.539 56.6194 142.738 58.4868 142.454C59.3911 142.318 60.2622 142.106 61.1002 141.819C61.9382 141.533 62.7315 141.163 63.4801 140.71C64.2253 140.238 64.9046 139.677 65.518 139.025L65.667 131.162L57.8525 132.517L57.8489 126.042L74.2417 123.198ZM129.573 92.5682L136.565 91.3553L147.197 121.77L157.834 87.6657L165.414 86.3509L150.448 133.008L144.572 134.027L129.573 92.5682ZM125.489 93.2765L132.775 92.0127L134.127 123.704L134.085 135.847L125.506 137.335L125.489 93.2765ZM161.889 86.9624L169.204 85.6935L169.22 129.752L160.583 131.25L160.616 118.353L161.889 86.9624ZM204.544 116.543L204.532 123.626L182.411 127.464L182.394 120.385L204.544 116.543ZM185.244 82.911L185.231 126.974L176.624 128.468L176.607 84.4093L185.244 82.911ZM201.662 98.0082L201.649 104.91L182.406 108.248L182.42 101.346L201.662 98.0082ZM204.486 79.573L204.479 86.6858L182.387 90.518L182.424 83.4002L204.486 79.573Z" fill="white"/>
<path d="M69.3876 96.7435C71.0714 88.6352 74.1777 86.7149 83.3138 87.6609" stroke="white" stroke-width="2"/>
<path d="M73.6016 97.5481C74.731 92.1092 76.8147 90.8211 82.943 91.4556" stroke="white" stroke-width="2"/>
<path d="M65.3536 95.8991C67.7185 84.5104 72.0815 81.8133 84.9137 83.1419" stroke="white" stroke-width="2"/>
<circle cx="99.4044" cy="122.133" r="19.282" transform="rotate(-6.3719 99.4044 122.133)" stroke="white" stroke-width="3.32448"/>
<circle cx="99.408" cy="122.164" r="15.1818" transform="rotate(-6.3719 99.408 122.164)" fill="white"/>
<path d="M99.3159 112.626L99.6298 115.437L98.1628 115.601L97.8489 112.79L99.3159 112.626ZM100.862 128.102L101.145 130.638L99.6877 130.801L99.4044 128.265L100.862 128.102ZM101.748 124.879C101.708 124.519 101.603 124.215 101.435 123.965C101.273 123.715 101.022 123.503 100.684 123.33C100.351 123.157 99.9126 123.005 99.3678 122.874C98.5207 122.668 97.7715 122.423 97.12 122.138C96.4678 121.846 95.9417 121.455 95.5418 120.963C95.1482 120.47 94.9063 119.82 94.8162 119.012C94.7295 118.236 94.8343 117.544 95.1305 116.936C95.4323 116.321 95.8909 115.823 96.5063 115.441C97.121 115.053 97.8574 114.811 98.7155 114.715C99.3843 114.641 99.995 114.675 100.548 114.817C101.106 114.953 101.595 115.189 102.016 115.525C102.443 115.861 102.789 116.295 103.053 116.828C103.322 117.353 103.496 117.97 103.575 118.676L101.077 118.955C101.033 118.564 100.95 118.222 100.828 117.929C100.706 117.636 100.551 117.395 100.364 117.205C100.176 117.008 99.959 116.87 99.7136 116.789C99.4745 116.707 99.2098 116.682 98.9195 116.714C98.5031 116.761 98.168 116.878 97.9143 117.066C97.667 117.254 97.4953 117.49 97.3994 117.775C97.3098 118.06 97.2848 118.379 97.3242 118.732C97.3623 119.073 97.4588 119.366 97.6139 119.61C97.7746 119.848 98.0212 120.054 98.3536 120.227C98.6923 120.4 99.1481 120.563 99.721 120.717C100.575 120.928 101.325 121.183 101.972 121.481C102.618 121.773 103.137 122.162 103.53 122.648C103.923 123.135 104.164 123.779 104.254 124.58C104.345 125.4 104.234 126.115 103.918 126.726C103.61 127.335 103.134 127.826 102.492 128.198C101.85 128.57 101.081 128.806 100.185 128.906C99.611 128.97 99.0346 128.957 98.4562 128.869C97.8777 128.78 97.3391 128.591 96.8405 128.302C96.3475 128.005 95.9336 127.589 95.5988 127.051C95.2634 126.507 95.0492 125.819 94.9562 124.986L97.4642 124.706C97.5178 125.185 97.6253 125.576 97.7867 125.877C97.9481 126.179 98.1467 126.412 98.3823 126.577C98.6173 126.736 98.8715 126.839 99.145 126.885C99.4184 126.931 99.6908 126.939 99.9621 126.909C100.404 126.859 100.761 126.743 101.035 126.559C101.314 126.374 101.512 126.138 101.626 125.851C101.747 125.556 101.787 125.232 101.748 124.879Z" fill="#1B1D32"/>
<rect width="2.93863" height="5.77418" rx="1.46932" transform="matrix(-0.575828 0.817571 -0.737388 -0.675469 114.95 139.9)" fill="white"/>
<rect width="2.93863" height="5.77418" rx="1.46932" transform="matrix(-0.848048 -0.529919 0.633826 -0.773476 90.5001 145.02)" fill="white"/>
<path d="M78.6642 108.132C76.7155 104.464 77.417 100.157 80.2725 97.8266C81.8731 96.5205 84.3666 96.0004 86.9998 96.3913C88.8813 96.6706 90.6981 97.3974 92.1435 98.4847L88.5237 100.028C86.897 100.651 84.4648 102.256 82.3808 104.056C81.3147 104.977 80.2886 105.993 79.4684 107.017C79.183 107.374 78.9095 107.747 78.6642 108.132Z" stroke="white" stroke-width="3"/>
<path d="M107.416 98.7305C110.301 96.0056 114.427 95.461 117.416 97.3946C119.15 98.5168 120.411 100.73 120.847 103.356C121.159 105.233 121.025 107.185 120.434 108.894L117.854 105.923C116.773 104.58 114.444 102.636 112.025 101.079C110.79 100.284 109.476 99.5536 108.223 99.0365C107.959 98.9273 107.689 98.8241 107.416 98.7305Z" stroke="white" stroke-width="3"/>
</svg>
