<svg width="29" height="29" viewBox="0 0 29 29" fill="none" xmlns="http://www.w3.org/2000/svg">
<path d="M27.9279 25.7388L22.6863 20.5125C24.3774 18.358 25.2951 15.6973 25.2917 12.9583C25.2917 10.519 24.5683 8.13451 23.2131 6.1063C21.8579 4.07809 19.9317 2.4973 17.6781 1.56382C15.4245 0.630338 12.9447 0.386097 10.5522 0.861981C8.15979 1.33787 5.9622 2.5125 4.23736 4.23735C2.51251 5.9622 1.33787 8.15979 0.861987 10.5522C0.386103 12.9447 0.630344 15.4245 1.56382 17.6781C2.49731 19.9317 4.0781 21.8579 6.10631 23.2131C8.13451 24.5683 10.519 25.2917 12.9583 25.2917C15.6973 25.2951 18.358 24.3774 20.5125 22.6862L25.7388 27.9279C25.8821 28.0724 26.0526 28.1871 26.2404 28.2654C26.4283 28.3436 26.6298 28.3839 26.8333 28.3839C27.0369 28.3839 27.2384 28.3436 27.4262 28.2654C27.6141 28.1871 27.7846 28.0724 27.9279 27.9279C28.0724 27.7846 28.1871 27.6141 28.2654 27.4262C28.3436 27.2384 28.3839 27.0369 28.3839 26.8333C28.3839 26.6298 28.3436 26.4283 28.2654 26.2404C28.1871 26.0526 28.0724 25.8821 27.9279 25.7388ZM3.70834 12.9583C3.70834 11.1289 4.25084 9.34046 5.26724 7.81931C6.28365 6.29815 7.7283 5.11256 9.41852 4.41245C11.1087 3.71234 12.9686 3.52916 14.7629 3.88607C16.5572 4.24298 18.2054 5.12396 19.4991 6.4176C20.7927 7.71123 21.6737 9.35942 22.0306 11.1537C22.3875 12.9481 22.2043 14.8079 21.5042 16.4982C20.8041 18.1884 19.6185 19.633 18.0974 20.6494C16.5762 21.6658 14.7878 22.2083 12.9583 22.2083C10.5051 22.2083 8.15231 21.2338 6.4176 19.4991C4.68289 17.7644 3.70834 15.4116 3.70834 12.9583Z" fill="white"/>
</svg>
