<svg width="42" height="43" viewBox="0 0 42 43" fill="none" xmlns="http://www.w3.org/2000/svg">
<g filter="url(#filter0_d_182_332)">
<path d="M21 19.125C16.0376 19.125 12 15.0874 12 10.125C12 5.16263 16.0376 1.125 21 1.125C25.9624 1.125 30 5.16263 30 10.125C30 15.0874 25.9624 19.125 21 19.125ZM21 3.375C17.2774 3.375 14.25 6.40238 14.25 10.125C14.25 13.8476 17.2774 16.875 21 16.875C24.7226 16.875 27.75 13.8476 27.75 10.125C27.75 6.40238 24.7226 3.375 21 3.375Z" fill="#FFD951"/>
<path d="M21.45 14.8499H20.55C19.2619 14.8499 18.1088 13.987 17.7454 12.7529C17.5699 12.1567 17.9096 11.5312 18.507 11.3557C19.1044 11.1835 19.7287 11.5222 19.9031 12.1173C19.9875 12.4019 20.2541 12.601 20.55 12.601H21.45C21.8224 12.601 22.125 12.2984 22.125 11.926C22.125 11.5537 21.8224 11.2499 21.45 11.2499H20.55C18.9368 11.2499 17.625 9.93703 17.625 8.3249C17.625 6.71278 18.9368 5.3999 20.55 5.3999H21.45C22.7111 5.3999 23.8249 6.20315 24.2242 7.40015C24.4211 7.98965 24.1027 8.6264 23.5132 8.82328C22.9181 9.0224 22.287 8.70065 22.0901 8.11228C21.999 7.83553 21.7414 7.6499 21.45 7.6499H20.55C20.1776 7.6499 19.875 7.95253 19.875 8.3249C19.875 8.69728 20.1776 8.9999 20.55 8.9999H21.45C23.0632 8.9999 24.375 10.3128 24.375 11.9249C24.375 13.537 23.0632 14.8499 21.45 14.8499Z" fill="#FFD951"/>
<path d="M21 6.7501C20.6951 6.7501 20.4139 6.62635 20.2013 6.42385C20.1562 6.3676 20.1 6.31135 20.0662 6.24385C20.0212 6.1876 19.9875 6.1201 19.965 6.0526C19.9313 5.9851 19.9087 5.9176 19.8964 5.8501C19.8862 5.77135 19.875 5.70385 19.875 5.6251C19.875 5.3326 19.9976 5.0401 20.2013 4.82635C20.6175 4.4101 21.3712 4.4101 21.7987 4.82635C22.0012 5.0401 22.125 5.3326 22.125 5.6251C22.125 5.70385 22.1138 5.77135 22.1014 5.8501C22.0901 5.9176 22.0688 5.9851 22.0339 6.0526C22.0103 6.1201 21.9776 6.1876 21.9326 6.24385C21.8876 6.31135 21.8426 6.3676 21.7976 6.42385C21.585 6.62635 21.2925 6.7501 21 6.7501ZM21 15.7501C20.6951 15.7501 20.4139 15.6263 20.2013 15.4238C20.1562 15.3676 20.1 15.3113 20.0662 15.2438C20.0212 15.1876 19.9875 15.1201 19.965 15.0526C19.9313 14.9851 19.9087 14.9176 19.8964 14.8501C19.8862 14.7713 19.875 14.7038 19.875 14.6251C19.875 14.3326 19.9976 14.0401 20.2013 13.8263C20.6175 13.4101 21.3712 13.4101 21.7987 13.8263C22.0012 14.0401 22.125 14.3326 22.125 14.6251C22.125 14.7038 22.1138 14.7713 22.1014 14.8501C22.0901 14.9176 22.0688 14.9851 22.0339 15.0526C22.0103 15.1201 21.9776 15.1876 21.9326 15.2438C21.8876 15.3113 21.8426 15.3676 21.7976 15.4238C21.585 15.6263 21.2925 15.7501 21 15.7501ZM23.25 34.8751H5.25C4.62788 34.8751 4.125 34.3711 4.125 33.7501V23.6251C4.125 23.327 4.24312 23.0401 4.45462 22.8297C4.71788 22.5653 7.10963 20.2501 9.75 20.2501C11.937 20.2501 14.7585 21.9027 15.7069 22.5001H21C22.8608 22.5001 24.375 24.0143 24.375 25.8751C24.375 26.0742 24.357 26.2688 24.3244 26.459L33.2018 22.76C34.2458 22.3246 35.4304 22.4405 36.372 23.0671C37.3136 23.6948 37.875 24.7445 37.875 25.8751C37.875 26.2745 37.6635 26.6457 37.317 26.8471L23.817 34.7221C23.6449 34.8222 23.4491 34.8751 23.25 34.8751ZM6.375 32.6251H22.9451L35.4776 25.3148C35.3932 25.1675 35.2729 25.0392 35.1244 24.9391C34.806 24.7265 34.419 24.6893 34.068 24.8367L23.6842 29.1635C23.5459 29.2208 23.3985 29.2501 23.25 29.2501H14.25C13.6279 29.2501 13.125 28.7461 13.125 28.1251C13.125 27.5041 13.6279 27.0001 14.25 27.0001H21C21.621 27.0001 22.125 26.495 22.125 25.8751C22.125 25.2552 21.621 24.7501 21 24.7501H15.375C15.1534 24.7501 14.9351 24.6837 14.7506 24.5622C13.89 23.9885 11.3104 22.5001 9.75 22.5001C8.52375 22.5001 7.10962 23.4901 6.375 24.119V32.6251Z" fill="#FFD951"/>
</g>
<defs>
<filter id="filter0_d_182_332" x="-1" y="0" width="44" height="44" filterUnits="userSpaceOnUse" color-interpolation-filters="sRGB">
<feFlood flood-opacity="0" result="BackgroundImageFix"/>
<feColorMatrix in="SourceAlpha" type="matrix" values="0 0 0 0 0 0 0 0 0 0 0 0 0 0 0 0 0 0 127 0" result="hardAlpha"/>
<feOffset dy="4"/>
<feGaussianBlur stdDeviation="2"/>
<feComposite in2="hardAlpha" operator="out"/>
<feColorMatrix type="matrix" values="0 0 0 0 0 0 0 0 0 0 0 0 0 0 0 0 0 0 0.25 0"/>
<feBlend mode="normal" in2="BackgroundImageFix" result="effect1_dropShadow_182_332"/>
<feBlend mode="normal" in="SourceGraphic" in2="effect1_dropShadow_182_332" result="shape"/>
</filter>
</defs>
</svg>
