<svg width="42" height="42" viewBox="0 0 42 42" fill="none" xmlns="http://www.w3.org/2000/svg">
<path d="M41.8337 11.0833C41.8353 10.8091 41.7827 10.5373 41.6791 10.2835C41.5754 10.0297 41.4226 9.79883 41.2295 9.60416L32.3962 0.770827C32.2015 0.577741 31.9707 0.42498 31.7168 0.321304C31.463 0.217628 31.1912 0.165076 30.917 0.166661C30.6428 0.165076 30.371 0.217628 30.1172 0.321304C29.8634 0.42498 29.6325 0.577741 29.4379 0.770827L23.542 6.66666L0.771194 29.4375C0.578107 29.6322 0.425346 29.863 0.32167 30.1169C0.217994 30.3707 0.165442 30.6425 0.167027 30.9167V39.75C0.167027 40.3025 0.38652 40.8324 0.777221 41.2231C1.16792 41.6138 1.69783 41.8333 2.25036 41.8333H11.0837C11.3752 41.8492 11.6668 41.8036 11.9396 41.6995C12.2123 41.5954 12.4602 41.4352 12.667 41.2292L35.3129 18.4583L41.2295 12.6667C41.4197 12.4647 41.5746 12.2324 41.6879 11.9792C41.7079 11.8131 41.7079 11.6452 41.6879 11.4792C41.6976 11.3822 41.6976 11.2845 41.6879 11.1875L41.8337 11.0833ZM10.2295 37.6667H4.33369V31.7708L25.0212 11.0833L30.917 16.9792L10.2295 37.6667ZM33.8545 14.0417L27.9587 8.14583L30.917 5.20833L36.792 11.0833L33.8545 14.0417Z" fill="#DA2F8A"/>
</svg>
