<svg width="24" height="24" viewBox="0 0 24 24" fill="none" xmlns="http://www.w3.org/2000/svg">
<g clip-path="url(#clip0_2_96)">
<path d="M12 24C8.79998 24 5.79998 22.8 3.49998 20.5C-1.20002 15.8 -1.20002 8.2 3.49998 3.5C5.79998 1.2 8.79998 0 12 0C15.2 0 18.2 1.2 20.5 3.5C25.2 8.2 25.2 15.8 20.5 20.5C18.2 22.8 15.2 24 12 24ZM12 2C9.29998 2 6.79998 3 4.89998 4.9C0.999976 8.8 0.999976 15.2 4.89998 19.1C6.79998 21 9.29998 22 12 22C14.7 22 17.2 21 19.1 19.1C23 15.2 23 8.9 19.1 5C17.2 3 14.7 2 12 2Z" fill="white"/>
<path d="M12 18C11.4 18 11 17.6 11 17V7C11 6.4 11.4 6 12 6C12.6 6 13 6.4 13 7V17C13 17.6 12.6 18 12 18Z" fill="white"/>
<path d="M17 13H7C6.4 13 6 12.6 6 12C6 11.4 6.4 11 7 11H17C17.6 11 18 11.4 18 12C18 12.6 17.6 13 17 13Z" fill="white"/>
</g>
<defs>
<clipPath id="clip0_2_96">
<rect width="24" height="24" fill="white"/>
</clipPath>
</defs>
</svg>
