<svg width="182" height="196" viewBox="0 0 182 196" fill="none" xmlns="http://www.w3.org/2000/svg">
<circle cx="101.292" cy="114.292" r="75.2917" stroke="#212338" stroke-width="10.8333"/>
<path d="M50.7666 176.58L59.7478 182.638L53.6145 191.731C52.2763 193.715 49.583 194.239 47.5989 192.9L45.8026 191.689C43.8185 190.35 43.295 187.657 44.6333 185.673L50.7666 176.58Z" fill="#212338"/>
<path d="M141.917 182.641L150.898 176.583L157.031 185.676C158.369 187.66 157.846 190.354 155.862 191.692L154.065 192.903C152.081 194.242 149.388 193.718 148.05 191.734L141.917 182.641Z" fill="#212338"/>
<path d="M150.067 34.1855L159.048 40.2435L150.898 52.3266L141.917 46.2686L150.067 34.1855Z" fill="#212338"/>
<rect x="169.73" y="35.5737" width="10.8333" height="23.5453" rx="4.33333" transform="rotate(123 169.73 35.5737)" fill="#212338"/>
<path d="M25.0744 24.7701C11.2262 37.0387 10.9816 59.3799 24.5281 74.6705C26.6585 63.0503 50.6297 44.3192 60.3174 40.2036L80.2586 30.7302C66.712 15.4395 38.9226 12.5015 25.0744 24.7701Z" fill="#212338"/>
<circle cx="100.5" cy="113.5" r="65.5" fill="#212338"/>
</svg>
