<svg width="26" height="28" viewBox="0 0 26 28" fill="none" xmlns="http://www.w3.org/2000/svg">
<path d="M1.5796 9.11386H21.2056L17.2617 13.0578C16.4125 13.8478 17.0636 15.3741 18.2039 15.3325C18.5448 15.3325 18.8857 15.2024 19.146 14.9421L25.3647 8.72345C25.7295 8.33343 25.8402 7.77253 25.6536 7.27114C25.5717 7.11958 25.4737 6.97254 25.3647 6.83912C25.3647 6.83912 19.146 0.620424 19.146 0.620424C17.8889 -0.594927 16.0425 1.24303 17.2617 2.50482C17.2617 2.50477 21.2056 6.44872 21.2056 6.44872H1.5796C-0.159308 6.4748 -0.182126 9.08303 1.5796 9.11386ZM24.4225 18.8861H4.79651L8.74045 14.9422C9.95699 13.6879 8.11698 11.8375 6.85606 13.0579C6.8561 13.0578 0.637412 19.2765 0.637412 19.2765C0.266389 19.6747 0.13798 20.2873 0.381118 20.783C0.449358 20.9189 0.544807 21.0422 0.637412 21.1609L6.85611 27.3795C8.11327 28.5951 9.95951 26.7567 8.74041 25.4952C8.74045 25.4952 4.7965 21.5513 4.7965 21.5513H24.4225C26.1613 21.5254 26.1843 18.9168 24.4225 18.8861Z" fill="#5EFF5A"/>
</svg>
