<svg width="64" height="64" viewBox="0 0 64 64" fill="none" xmlns="http://www.w3.org/2000/svg">
<rect width="64" height="64" rx="15" fill="url(#paint0_linear_407_407)"/>
<path d="M50 20.4744C48.647 21.0552 47.2162 21.4392 45.752 21.6144C47.2967 20.7012 48.4543 19.2646 49.01 17.5711C47.5584 18.4261 45.9694 19.0286 44.312 19.3522C43.2042 18.1634 41.7289 17.3721 40.1177 17.1023C38.5064 16.8326 36.8502 17.0997 35.4088 17.8617C33.9675 18.6238 32.8225 19.8377 32.1534 21.313C31.4844 22.7884 31.3291 24.4418 31.712 26.0139C28.777 25.867 25.906 25.1108 23.2856 23.7943C20.6652 22.4778 18.3539 20.6306 16.502 18.3726C15.8524 19.495 15.5111 20.7662 15.512 22.0597C15.5097 23.2609 15.8076 24.444 16.3792 25.5037C16.9507 26.5634 17.7782 27.4668 18.788 28.1335C17.6144 28.1019 16.4658 27.7903 15.44 27.2251V27.3142C15.4488 28.9972 16.0448 30.6256 17.1272 31.9238C18.2095 33.2221 19.7119 34.1106 21.38 34.4389C20.7379 34.6323 20.0712 34.7343 19.4 34.7418C18.9354 34.7364 18.472 34.6947 18.014 34.6171C18.489 36.0648 19.4083 37.3301 20.6439 38.2367C21.8795 39.1434 23.37 39.6464 24.908 39.6757C22.311 41.6978 19.1046 42.8014 15.8 42.8106C15.1983 42.8125 14.5971 42.7768 14 42.7037C17.374 44.8594 21.3059 46.0037 25.322 45.9989C28.0934 46.0274 30.8428 45.5091 33.4096 44.4743C35.9764 43.4396 38.309 41.9091 40.2714 39.9722C42.2337 38.0354 43.7863 35.731 44.8386 33.1937C45.8909 30.6564 46.4217 27.9371 46.4 25.1946C46.4 24.8918 46.4 24.5711 46.4 24.2505C47.8125 23.2082 49.0307 21.9304 50 20.4744Z" fill="white"/>
<defs>
<linearGradient id="paint0_linear_407_407" x1="64" y1="-2.92063e-06" x2="15" y2="64" gradientUnits="userSpaceOnUse">
<stop stop-color="#40BAFF"/>
<stop offset="1" stop-color="#483EA8"/>
</linearGradient>
</defs>
</svg>
