<svg width="24" height="27" viewBox="0 0 24 27" fill="none" xmlns="http://www.w3.org/2000/svg">
<path d="M16.95 13.6138C17.7504 12.8963 18.3923 12.0089 18.8323 11.0117C19.2723 10.0145 19.5 8.93099 19.5 7.83464C19.5 5.77451 18.7098 3.79875 17.3033 2.34202C15.8968 0.88528 13.9891 0.0668945 12 0.0668945C10.0109 0.0668945 8.10322 0.88528 6.6967 2.34202C5.29018 3.79875 4.5 5.77451 4.5 7.83464C4.49999 8.93099 4.7277 10.0145 5.16769 11.0117C5.60767 12.0089 6.24963 12.8963 7.05 13.6138C4.95021 14.5986 3.1687 16.1889 1.91847 18.1946C0.668243 20.2002 0.00220778 22.5364 0 24.9237C0 25.3357 0.158035 25.7309 0.43934 26.0222C0.720644 26.3136 1.10218 26.4772 1.5 26.4772C1.89782 26.4772 2.27936 26.3136 2.56066 26.0222C2.84196 25.7309 3 25.3357 3 24.9237C3 22.4515 3.94821 20.0806 5.63604 18.3325C7.32387 16.5845 9.61305 15.6024 12 15.6024C14.3869 15.6024 16.6761 16.5845 18.364 18.3325C20.0518 20.0806 21 22.4515 21 24.9237C21 25.3357 21.158 25.7309 21.4393 26.0222C21.7206 26.3136 22.1022 26.4772 22.5 26.4772C22.8978 26.4772 23.2794 26.3136 23.5607 26.0222C23.842 25.7309 24 25.3357 24 24.9237C23.9978 22.5364 23.3318 20.2002 22.0815 18.1946C20.8313 16.1889 19.0498 14.5986 16.95 13.6138ZM12 12.4953C11.11 12.4953 10.24 12.2219 9.49993 11.7098C8.75991 11.1977 8.18314 10.4698 7.84254 9.61819C7.50195 8.76657 7.41283 7.82947 7.58647 6.92539C7.7601 6.02132 8.18868 5.19087 8.81802 4.53907C9.44736 3.88726 10.2492 3.44338 11.1221 3.26355C11.995 3.08371 12.8998 3.17601 13.7221 3.52876C14.5443 3.88152 15.2471 4.47888 15.7416 5.24532C16.2361 6.01176 16.5 6.91285 16.5 7.83464C16.5 9.07072 16.0259 10.2562 15.182 11.1302C14.3381 12.0043 13.1935 12.4953 12 12.4953Z" fill="#DB2E88"/>
</svg>
