<svg width="75" height="46" viewBox="0 0 75 46" fill="none" xmlns="http://www.w3.org/2000/svg">
<path d="M46.278 23.5044C47.7017 22.2721 48.8435 20.748 49.6262 19.0354C50.4088 17.3229 50.8138 15.462 50.8138 13.5791C50.8138 10.0409 49.4083 6.64773 46.9064 4.14589C44.4046 1.64406 41.0114 0.238541 37.4733 0.238541C33.9351 0.238541 30.5419 1.64406 28.0401 4.14589C25.5383 6.64773 24.1327 10.0409 24.1327 13.5791C24.1327 15.462 24.5378 17.3229 25.3204 19.0354C26.103 20.748 27.2449 22.2721 28.6685 23.5044C24.9335 25.1957 21.7647 27.9269 19.5409 31.3715C17.317 34.816 16.1323 38.8282 16.1284 42.9282C16.1284 43.6359 16.4095 44.3145 16.9099 44.8149C17.4103 45.3152 18.0889 45.5963 18.7965 45.5963C19.5041 45.5963 20.1828 45.3152 20.6832 44.8149C21.1835 44.3145 21.4646 43.6359 21.4646 42.9282C21.4646 38.6825 23.1512 34.6106 26.1535 31.6084C29.1557 28.6062 33.2275 26.9196 37.4733 26.9196C41.719 26.9196 45.7909 28.6062 48.7931 31.6084C51.7953 34.6106 53.4819 38.6825 53.4819 42.9282C53.4819 43.6359 53.763 44.3145 54.2634 44.8149C54.7637 45.3152 55.4424 45.5963 56.15 45.5963C56.8576 45.5963 57.5363 45.3152 58.0366 44.8149C58.537 44.3145 58.8181 43.6359 58.8181 42.9282C58.8142 38.8282 57.6295 34.816 55.4057 31.3715C53.1818 27.9269 50.013 25.1957 46.278 23.5044ZM37.4733 21.5834C35.8902 21.5834 34.3426 21.1139 33.0263 20.2344C31.71 19.3549 30.6841 18.1048 30.0782 16.6422C29.4724 15.1796 29.3139 13.5702 29.6227 12.0175C29.9316 10.4648 30.6939 9.03859 31.8134 7.91916C32.9328 6.79974 34.359 6.0374 35.9117 5.72855C37.4644 5.41971 39.0738 5.57822 40.5364 6.18405C41.999 6.78987 43.2491 7.81581 44.1286 9.13211C45.0081 10.4484 45.4776 11.996 45.4776 13.5791C45.4776 15.7019 44.6343 17.7379 43.1332 19.239C41.6321 20.7401 39.5961 21.5834 37.4733 21.5834ZM63.4606 22.4372C65.1681 20.5144 66.2835 18.139 66.6725 15.5971C67.0615 13.0551 66.7075 10.4549 65.6532 8.10945C64.5988 5.76399 62.8891 3.77324 60.7297 2.37682C58.5704 0.980407 56.0534 0.237853 53.4819 0.238541C52.7743 0.238541 52.0956 0.519644 51.5953 1.02001C51.0949 1.52038 50.8138 2.19902 50.8138 2.90665C50.8138 3.61427 51.0949 4.29292 51.5953 4.79328C52.0956 5.29365 52.7743 5.57475 53.4819 5.57475C55.6048 5.57475 57.6407 6.41806 59.1418 7.91916C60.6429 9.42026 61.4862 11.4562 61.4862 13.5791C61.4824 14.9805 61.1108 16.3563 60.4085 17.569C59.7061 18.7817 58.6977 19.7888 57.4841 20.4895C57.0885 20.7176 56.7581 21.0435 56.5245 21.4359C56.2909 21.8284 56.162 22.2742 56.15 22.7307C56.1388 23.1836 56.2432 23.6319 56.4533 24.0334C56.6633 24.4348 56.9722 24.7762 57.3507 25.0252L58.3912 25.719L58.7381 25.9057C61.9542 27.4311 64.6674 29.8438 66.5582 32.8596C68.449 35.8755 69.4386 39.3688 69.4105 42.9282C69.4105 43.6359 69.6916 44.3145 70.192 44.8149C70.6923 45.3152 71.371 45.5963 72.0786 45.5963C72.7862 45.5963 73.4649 45.3152 73.9652 44.8149C74.4656 44.3145 74.7467 43.6359 74.7467 42.9282C74.7685 38.8338 73.743 34.8019 71.7677 31.2154C69.7923 27.629 66.9327 24.6072 63.4606 22.4372Z" fill="#40BAFF"/>
<path d="M28.5926 23.5044C27.1687 22.2721 26.0267 20.748 25.244 19.0354C24.4612 17.3229 24.0561 15.462 24.0561 13.5791C24.0561 10.0409 25.4619 6.64773 27.9641 4.14589C30.4663 1.64406 33.86 0.238541 37.3986 0.238541C40.9373 0.238541 44.331 1.64406 46.8332 4.14589C49.3354 6.64773 50.7411 10.0409 50.7411 13.5791C50.7411 15.462 50.336 17.3229 49.5533 19.0354C48.7705 20.748 47.6285 22.2721 46.2047 23.5044C49.9402 25.1957 53.1095 27.9269 55.3336 31.3715C57.5578 34.816 58.7427 38.8282 58.7466 42.9282C58.7466 43.6359 58.4654 44.3145 57.965 44.8149C57.4646 45.3152 56.7858 45.5963 56.0781 45.5963C55.3704 45.5963 54.6916 45.3152 54.1912 44.8149C53.6907 44.3145 53.4096 43.6359 53.4096 42.9282C53.4096 38.6825 51.7227 34.6106 48.7201 31.6084C45.7174 28.6062 41.645 26.9196 37.3986 26.9196C33.1523 26.9196 29.0798 28.6062 26.0772 31.6084C23.0745 34.6106 21.3877 38.6825 21.3877 42.9282C21.3877 43.6359 21.1065 44.3145 20.6061 44.8149C20.1056 45.3152 19.4269 45.5963 18.7192 45.5963C18.0114 45.5963 17.3327 45.3152 16.8322 44.8149C16.3318 44.3145 16.0507 43.6359 16.0507 42.9282C16.0546 38.8282 17.2395 34.816 19.4636 31.3715C21.6878 27.9269 24.8571 25.1957 28.5926 23.5044ZM37.3986 21.5834C38.982 21.5834 40.5297 21.1139 41.8462 20.2344C43.1627 19.3549 44.1888 18.1048 44.7947 16.6422C45.4006 15.1796 45.5592 13.5702 45.2503 12.0175C44.9414 10.4648 44.1789 9.03859 43.0594 7.91916C41.9398 6.79974 40.5133 6.0374 38.9604 5.72855C37.4075 5.41971 35.7979 5.57822 34.3351 6.18405C32.8722 6.78987 31.622 7.81581 30.7423 9.13211C29.8627 10.4484 29.3931 11.996 29.3931 13.5791C29.3931 15.7019 30.2366 17.7379 31.7379 19.239C33.2392 20.7401 35.2754 21.5834 37.3986 21.5834ZM11.4075 22.4372C9.69973 20.5144 8.58419 18.139 8.19514 15.5971C7.8061 13.0551 8.16012 10.4549 9.2146 8.10945C10.2691 5.76399 11.9791 3.77324 14.1388 2.37682C16.2984 0.980407 18.8157 0.237853 21.3877 0.238541C22.0954 0.238541 22.7741 0.519644 23.2746 1.02001C23.775 1.52038 24.0561 2.19902 24.0561 2.90665C24.0561 3.61427 23.775 4.29292 23.2746 4.79328C22.7741 5.29365 22.0954 5.57475 21.3877 5.57475C19.2645 5.57475 17.2282 6.41806 15.7269 7.91916C14.2256 9.42026 13.3822 11.4562 13.3822 13.5791C13.3859 14.9805 13.7576 16.3563 14.4601 17.569C15.1625 18.7817 16.1711 19.7888 17.3849 20.4895C17.7805 20.7176 18.111 21.0435 18.3446 21.4359C18.5782 21.8284 18.7072 22.2742 18.7192 22.7307C18.7303 23.1836 18.6259 23.6319 18.4158 24.0334C18.2058 24.4348 17.8969 24.7762 17.5183 25.0252L16.4776 25.719L16.1307 25.9057C12.9141 27.4311 10.2005 29.8438 8.30942 32.8596C6.41834 35.8755 5.4286 39.3688 5.45674 42.9282C5.45674 43.6359 5.17559 44.3145 4.67515 44.8149C4.17471 45.3152 3.49598 45.5963 2.78825 45.5963C2.08052 45.5963 1.40177 45.3152 0.901333 44.8149C0.40089 44.3145 0.119751 43.6359 0.119751 42.9282C0.0979347 38.8338 1.12357 34.8019 3.09921 31.2154C5.07484 27.629 7.93485 24.6072 11.4075 22.4372Z" fill="#40BAFF"/>
</svg>
