<svg width="43" height="37" viewBox="0 0 43 37" fill="none" xmlns="http://www.w3.org/2000/svg">
<path d="M38.5044 16.3156V12.1501V12.1501C38.5044 9.84956 36.6395 7.98461 34.339 7.98461H7C4.23858 7.98461 2 10.2232 2 12.9846V29.7886C2 32.55 4.23858 34.7886 7.00001 34.7886H33.5044C36.2659 34.7886 38.5044 32.55 38.5044 29.7886V26.0954" stroke="#404797" stroke-width="3"/>
<path d="M29.3781 25.5986L26.8892 21.3866L29.3781 17.1745H40.1635C40.8191 17.168 40.9555 17.3758 40.9932 17.9404V24.8328C41.0419 25.4262 40.827 25.5994 40.1635 25.5986H29.3781Z" fill="#404797" stroke="#404797" stroke-width="3"/>
<ellipse cx="33.1122" cy="21.3866" rx="2.07412" ry="1.91457" fill="#363958"/>
<path d="M5.25 8C5.59141 8 21.7517 4.15905 30.4293 2.00811C32.2265 1.93345 32.9381 2.34912 33.4167 4.31268V7.53909" stroke="#404797" stroke-width="3"/>
</svg>
